<?xml version="1.0" encoding="UTF-8"?>
<svg id="Camada_1" data-name="Camada 1" xmlns="http://www.w3.org/2000/svg" viewBox="0 0 243.12 87.55">
  <defs>
    <style>
      .cls-1 {
        fill: #fff;
      }
    </style>
  </defs>
  <path class="cls-1" d="M243.12,87.55h-62.66l-13.91-24.1-13.91-24.1-.19-.33-.19-.33c-2.63-4.5-6.8-7.54-11.44-8.86-4.65-1.32-9.78-.91-14.35,1.51l-.03.02-.03.02c-.1.05-.19.11-.29.16s-.19.11-.29.16c-.04.02-.07.04-.11.07s-.07.05-.11.07l-3.97,2.29-3.97,2.29-44.3,25.57-44.3,25.57H0l67.67-39.07L135.34,9.41l2.11-1.21,2.11-1.21.72-.42.72-.42c5.79-3.24,11.97-5.15,18.19-5.85,6.22-.69,12.47-.16,18.42,1.5,5.88,1.64,11.45,4.38,16.38,8.13,4.93,3.75,9.22,8.52,12.52,14.21l.05.1.05.1,18.25,31.61,18.25,31.61Z"/>
</svg>