<?xml version="1.0" encoding="UTF-8"?>
<svg id="Camada_1" data-name="Camada 1" xmlns="http://www.w3.org/2000/svg" viewBox="0 0 1183.32 100.95">
  <defs>
    <style>
      .cls-1 {
        fill: #1b1d29;
      }
    </style>
  </defs>
  <path class="cls-1" d="M280.32,100.95h-72.25l-8.02-13.9-8.02-13.9-8.02-13.9-8.02-13.9-.11-.19-.11-.19-.11-.19-.11-.19c-1.52-2.59-3.48-4.77-5.73-6.48-2.25-1.72-4.79-2.98-7.47-3.74s-5.5-1.02-8.31-.75c-2.81.28-5.61,1.09-8.24,2.49h-.02s-.02.02-.02.02h-.02s-.02.02-.02.02c-.06.03-.11.06-.17.09s-.11.06-.16.09-.11.06-.16.09-.11.06-.17.09c-.02.01-.04.02-.06.04s-.04.03-.06.04-.04.03-.06.04-.04.03-.06.04l-2.29,1.32-2.29,1.32-2.29,1.32-2.29,1.32-25.54,14.74-25.54,14.74-25.54,14.74-25.54,14.74H0l39.01-22.53,39.01-22.53,39.01-22.53,39.01-22.53,1.21-.7,1.21-.7,1.21-.7,1.21-.7.42-.24.42-.24.42-.24.42-.24c3.34-1.87,6.79-3.35,10.3-4.47,3.51-1.12,7.09-1.87,10.67-2.27s7.18-.45,10.73-.15c3.56.29,7.07.92,10.5,1.88,3.39.94,6.69,2.21,9.86,3.77s6.19,3.44,9.03,5.6c2.84,2.16,5.5,4.62,7.92,7.36,2.42,2.74,4.61,5.75,6.52,9.03l.03.06.03.06.03.06.03.06,10.52,18.22,10.52,18.22,10.52,18.22,10.52,18.22ZM673.06,1.23h-92.98c-2,0-3.97.27-5.86.78-1.88.51-3.69,1.26-5.37,2.23s-3.23,2.15-4.61,3.53-2.6,2.95-3.6,4.68l-.81,1.4-.81,1.4-.81,1.4-.81,1.4-3.06,5.3-3.06,5.3-3.06,5.3-3.06,5.3-2.43,4.21-2.43,4.21-2.43,4.21-2.43,4.21-4.05,7.01-4.05,7.01-4.05,7.01-4.05,7.01-2.43,4.21-2.43,4.21-2.43,4.21-2.43,4.21h198.92l2.43-4.21,2.43-4.21,2.43-4.21,2.43-4.21h-126.4l4.05-7.01,4.05-7.01,4.05-7.01,4.05-7.01h106.98l2.43-4.21,2.43-4.21,2.43-4.21,2.43-4.21h-106.98l2.25-3.9,2.25-3.9,2.25-3.9,2.25-3.9c.5-.87,1.11-1.65,1.8-2.34s1.47-1.28,2.31-1.76,1.74-.86,2.68-1.11c.94-.25,1.92-.39,2.93-.39h119.93l2.43-4.21,2.43-4.21,2.43-4.21,2.43-4.21h-92.98ZM1181.8,6.84c-.95-1.64-2.3-3.04-3.95-4.03-1.65-.99-3.61-1.58-5.77-1.58h-160.06l-2.42,4.21-2.42,4.21-2.43,4.21-2.43,4.21h100.5c.72,0,1.37.19,1.92.52s1,.8,1.31,1.35c.32.54.5,1.17.51,1.81s-.15,1.31-.51,1.93l-2.24,3.9-2.24,3.9-2.25,3.9-2.25,3.9h-94.03c-2,0-3.97.27-5.85.78s-3.69,1.26-5.37,2.23c-1.68.97-3.23,2.15-4.61,3.53-1.38,1.38-2.6,2.95-3.6,4.69l-14.57,25.24-14.57,25.24h166.54c2,0,3.97-.27,5.85-.78s3.69-1.26,5.37-2.23c1.68-.97,3.23-2.16,4.61-3.54,1.38-1.38,2.6-2.94,3.6-4.68l10.35-17.92,10.35-17.92,10.35-17.92,10.35-17.92c1.08-1.87,1.55-3.86,1.51-5.79-.03-1.93-.57-3.8-1.51-5.43ZM1080.85,67.29l-3.23,5.61-3.23,5.61c-.5.87-1.11,1.65-1.8,2.34s-1.47,1.28-2.31,1.77c-.84.49-1.74.86-2.68,1.12s-1.93.39-2.93.39h-71.35l3.24-5.61,3.24-5.61,3.23-5.61,3.23-5.61c.5-.87,1.11-1.65,1.8-2.34s1.47-1.29,2.31-1.77c.84-.48,1.74-.85,2.68-1.11.94-.25,1.93-.39,2.93-.39h71.35l-3.24,5.61-3.24,5.61ZM910.72,92.54l-2.43-4.21-2.43-4.21-4.05-7.01-4.05-7.01-4.05-7.01-4.05-7.01-2.43-4.21-2.43-4.21-2.43-4.21-2.43-4.21-3.06-5.3-3.06-5.3-3.06-5.3-3.06-5.3-2.43-4.21-2.43-4.21-2.43-4.21-2.43-4.21h-58.85c-2.12,0-4.19.28-6.18.82-1.99.54-3.89,1.33-5.66,2.35s-3.41,2.27-4.87,3.73-2.74,3.11-3.8,4.94l-.72,1.25-.72,1.25-.72,1.25-.72,1.25-3.06,5.3-3.06,5.3-3.06,5.3-3.06,5.3-2.43,4.21-2.43,4.21-2.43,4.21-2.43,4.21-4.05,7.01-4.05,7.01-4.05,7.01-4.05,7.01-2.43,4.21-2.43,4.21-2.43,4.21-2.43,4.21h72.51l2.43-4.21,2.43-4.21,2.43-4.21,2.43-4.21,4.05-7.01,4.05-7.01,4.05-7.01,4.05-7.01,2.43-4.21,2.43-4.21,2.43-4.21,2.43-4.21,3.06-5.3,3.06-5.3,3.06-5.3,3.06-5.3h0s0-.01,0-.01h0s0-.01,0-.01h0s0,.01,0,.01h0s0,.01,0,.01l3.06,5.3,3.06,5.3,3.06,5.3,3.06,5.3,2.43,4.21,2.43,4.21,2.43,4.21,2.43,4.21,4.05,7.01,4.05,7.01,4.05,7.01,4.05,7.01,2.43,4.21,2.43,4.21,2.43,4.21,2.43,4.21h19.43l-2.43-4.21-2.43-4.21ZM982.87,1.23h9.72l-2.43,4.21-2.43,4.21-2.43,4.21-2.43,4.21-3.06,5.3-3.06,5.3-3.06,5.3-3.06,5.3-2.43,4.21-2.43,4.21-2.43,4.21-2.43,4.21-4.05,7.01-4.05,7.01-4.05,7.01-4.05,7.01-2.43,4.21-2.43,4.21-2.43,4.21-2.43,4.21h-19.43l2.43-4.21,2.43-4.21,2.43-4.21,2.43-4.21,4.05-7.01,4.05-7.01,4.05-7.01,4.05-7.01,2.43-4.21,2.43-4.21,2.43-4.21,2.43-4.21,3.06-5.3,3.06-5.3,3.06-5.3,3.06-5.3,2.43-4.21,2.43-4.21,2.43-4.21,2.43-4.21h9.72ZM501.91,61.69l17.45-30.23,17.45-30.23h-92.99s-92.99,0-92.99,0c-4.01,0-7.86,1.07-11.22,3.01s-6.21,4.74-8.21,8.21l-25.55,44.25-25.55,44.25h36.26s36.26,0,36.26,0l8.1-14.02,8.1-14.02,4.86-8.41,4.86-8.41,4.21-7.29,4.21-7.29,5.16-8.93,5.16-8.93c1-1.74,2.43-3.14,4.11-4.11s3.6-1.5,5.61-1.5h45.39s45.39,0,45.39,0l-9.36,16.21-9.36,16.21c-1,1.74-2.43,3.14-4.11,4.11-1.68.97-3.61,1.5-5.61,1.5h-45.39s-45.39,0-45.39,0l14.57,8.41,14.57,8.41,24.29,14.02,24.29,14.02h16.83s16.83,0,16.83,0l-4.08-2.35-4.08-2.35-7.28-4.21-7.28-4.21-12.93-7.47-12.93-7.47h20.47s20.47,0,20.47,0c4.01,0,7.86-1.07,11.22-3.01,3.35-1.94,6.21-4.74,8.21-8.21Z"/>
</svg>